<svg version="1.1" viewBox="0.0 0.0 927.1338582677165 230.7217847769029" fill="none" stroke="none" stroke-linecap="square" stroke-miterlimit="10" xmlns:xlink="http://www.w3.org/1999/xlink" xmlns="http://www.w3.org/2000/svg"><clipPath id="p.0"><path d="m0 0l927.13385 0l0 230.72179l-927.13385 0l0 -230.72179z" clip-rule="nonzero"/></clipPath><g clip-path="url(#p.0)"><path fill="#000000" fill-opacity="0.0" d="m0 0l927.13385 0l0 230.72179l-927.13385 0z" fill-rule="evenodd"/><path fill="#000000" fill-opacity="0.0" d="m-14.186352 -47.76378l961.4803 0l0 220.12598l-961.4803 0z" fill-rule="evenodd"/><path fill="#dc143c" d="m138.1574 52.99997q0 8.0625 -2.0 14.40625q-1.984375 6.328125 -5.375 11.171875q-3.3906174 4.828125 -7.8281174 8.28125q-4.4375 3.4375 -9.28125 5.65625q-4.84375 2.203125 -9.78125 3.203125q-4.921875 1.0 -9.265625 1.0l49.140617 42.4375l-36.374992 0l-49.04688 -42.4375l-16.921875 0l0 -23.53125l53.20313 0q4.4375 -0.359375 8.09375 -1.84375q3.671875 -1.5 6.34375 -4.03125q2.671875 -2.546875 4.109375 -6.109375q1.453125 -3.578125 1.453125 -8.203125l0 -14.828125q0 -2.0 -0.5 -3.03125q-0.5 -1.046875 -1.265625 -1.546875q-0.765625 -0.5 -1.625 -0.578125q-0.859375 -0.09375 -1.59375 -0.09375l-77.640625 0l0 106.234375l-23.515625 0l0 -117.90625q0 -2.453125 0.890625 -4.625q0.90625 -2.171876 2.484375 -3.796876q1.59375 -1.625 3.765625 -2.53125q2.171875 -0.90625 4.703125 -0.90625l89.3125 0q7.875 0 13.296875 2.859375q5.4374924 2.84375 8.828117 7.140626q3.40625 4.296875 4.890625 9.28125q1.5 4.96875 1.5 9.3125l0 15.015625zm130.30952 33.125l-74.296906 0l0 -23.703125l74.296906 0l0 23.703125zm10.578125 53.03125l-84.87503 0q-4.890625 0 -10.6875 -1.71875q-5.78125 -1.71875 -10.71875 -5.65625q-4.921875 -3.9375 -8.234375 -10.21875q-3.296875 -6.296875 -3.296875 -15.4375l0 -84.875q0 -2.453125 0.90625 -4.625q0.90625 -2.171876 2.484375 -3.796876q1.578125 -1.625 3.75 -2.53125q2.171875 -0.90625 4.703125 -0.90625l105.96878 0l0 23.53125l-94.28128 0l0 73.203125q0 4.609375 2.4375 7.0625q2.4375 2.4375 7.140625 2.4375l84.703156 0l0 23.53125zm141.89777 0l-107.328125 0q-2.53125 0 -4.703125 -0.90625q-2.171875 -0.90625 -3.765625 -2.484375q-1.578125 -1.59375 -2.484375 -3.765625q-0.890625 -2.171875 -0.890625 -4.703125l0 -117.90625l23.515625 0l0 106.234375l95.65625 0l0 23.53125zm40.99356 0l-23.53125 0l0 -129.76562l23.53125 0l0 129.76562zm154.82797 0l-23.53125 0l0 -31.859375l-82.703125 0l0 31.859375l-23.53125 0l0 -64.890625q0 -14.203125 4.890625 -26.140625q4.890625 -11.953125 13.578125 -20.546875q8.6875 -8.59375 20.53125 -13.390626q11.859375 -4.796875 25.890625 -4.796875l53.015625 0q2.453125 0 4.625 0.90625q2.171875 0.90625 3.796875 2.53125q1.625 1.625 2.53125 3.796876q0.90625 2.171875 0.90625 4.625l0 117.90625zm-106.234375 -55.375l82.703125 0l0 -50.859375l-41.34375 0q-1.09375 0 -4.578125 0.3125q-3.484375 0.3125 -8.0625 1.578125q-4.5625 1.265625 -9.625 3.890625q-5.0625 2.625 -9.328125 7.25q-4.25 4.609375 -7.015625 11.53125q-2.75 6.921875 -2.75 16.78125l0 9.515625zm263.245 45.328125q0 2.53125 -0.953125 4.703125q-0.953125 2.171875 -2.546875 3.765625q-1.578125 1.578125 -3.75 2.484375q-2.171875 0.90625 -4.609375 0.90625q-2.171875 0 -4.390625 -0.8125q-2.21875 -0.8125 -3.9375 -2.625l-85.96875 -89.765625l0 91.390625l-23.515625 0l0 -119.71875q0 -3.625001 2.03125 -6.562501q2.03125 -2.9375 5.203125 -4.390625q3.34375 -1.359375 6.875 -0.671875q3.53125 0.671875 6.0625 3.296875l85.96875 89.671875l0 -91.390625l23.53125 0l0 119.71875zm144.59778 -96.1875l-51.84375 0l0 106.234375l-23.53125 0l0 -106.234375l-51.9375 0l0 -23.53125l127.3125 0l0 23.53125z" fill-rule="nonzero"/><path fill="#000000" fill-opacity="0.0" d="m0.42519686 302.32285l959.14966 0l0 -42.015747l-959.14966 0z" fill-rule="evenodd"/><path fill="#000000" fill-opacity="0.0" d="m0 145.60104l927.49603 0l0 100.18898l-927.49603 0z" fill-rule="evenodd"/><path fill="#dc143c" d="m325.79886 204.86667q0 2.5 -0.640625 4.515625q-0.625 2.0 -1.671875 3.53125q-1.046875 1.515625 -2.453125 2.59375q-1.390625 1.078125 -2.890625 1.765625q-1.484375 0.671875 -3.03125 1.0q-1.546875 0.328125 -2.921875 0.328125l-32.640625 0l0 -8.46875l32.640625 0q2.4375 0 3.78125 -1.421875q1.359375 -1.4375 1.359375 -3.84375q0 -1.171875 -0.359375 -2.140625q-0.34375 -0.984375 -1.015625 -1.703125q-0.671875 -0.71875 -1.640625 -1.109375q-0.953125 -0.390625 -2.125 -0.390625l-19.453125 0q-2.0625 0 -4.4375 -0.71875q-2.375 -0.734375 -4.40625 -2.359375q-2.03125 -1.640625 -3.390625 -4.265625q-1.34375 -2.640625 -1.34375 -6.453125q0 -3.8125 1.34375 -6.421875q1.359375 -2.625 3.390625 -4.265625q2.03125 -1.640625 4.40625 -2.375q2.375 -0.734375 4.4375 -0.734375l28.796875 0l0 8.46875l-28.796875 0q-2.421875 0 -3.765625 1.46875q-1.34375 1.453125 -1.34375 3.859375q0 2.4375 1.34375 3.859375q1.34375 1.421875 3.765625 1.421875l19.453125 0l0.0625 0q1.375 0.03125 2.90625 0.375q1.53125 0.328125 3.03125 1.046875q1.515625 0.71875 2.875 1.8125q1.375 1.09375 2.4375 2.625q1.0625 1.515625 1.671875 3.515625q0.625 1.984375 0.625 4.484375zm52.754913 9.46875q0 0.90625 -0.328125 1.6875q-0.3125 0.78125 -0.90625 1.359375q-0.578125 0.5625 -1.359375 0.890625q-0.78125 0.328125 -1.671875 0.328125l-19.0625 0q-2.703125 0 -5.46875 -0.578125q-2.765625 -0.59375 -5.359375 -1.8125q-2.59375 -1.21875 -4.875 -3.109375q-2.265625 -1.890625 -3.984375 -4.46875q-1.703125 -2.59375 -2.6875 -5.921875q-0.96875 -3.34375 -0.96875 -7.453125l0 -23.328125l8.46875 0l0 23.328125q0 3.59375 0.984375 6.0625q1.0 2.46875 2.53125 4.140625q1.53125 1.65625 3.34375 2.609375q1.828125 0.9375 3.46875 1.390625q1.640625 0.453125 2.890625 0.5625q1.265625 0.109375 1.65625 0.109375l14.875 0l0 -38.203125l8.453125 0l0 42.40625zm56.33899 -22.875q0 2.890625 -0.71875 5.171875q-0.703125 2.28125 -1.9375 4.03125q-1.21875 1.734375 -2.8125 2.96875q-1.59375 1.234375 -3.34375 2.015625q-1.734375 0.78125 -3.515625 1.140625q-1.765625 0.359375 -3.328125 0.359375l-19.140625 0l0 -8.46875l19.140625 0q1.625 -0.125 2.9375 -0.65625q1.328125 -0.546875 2.265625 -1.453125q0.953125 -0.921875 1.46875 -2.203125q0.53125 -1.28125 0.53125 -2.90625l0 -3.84375q-0.171875 -1.59375 -0.703125 -2.921875q-0.515625 -1.34375 -1.40625 -2.28125q-0.890625 -0.953125 -2.171875 -1.484375q-1.265625 -0.53125 -2.921875 -0.53125l-19.0625 0q-1.703125 0 -2.578125 0.875q-0.875 0.875 -0.875 2.53125l0 34.796875l-8.46875 0l0 -34.796875q0 -3.25 1.1875 -5.53125q1.1875 -2.28125 2.953125 -3.671875q1.78125 -1.40625 3.859375 -2.03125q2.09375 -0.640625 3.84375 -0.640625l19.140625 0q2.875 0 5.140625 0.734375q2.28125 0.734375 4.015625 1.953125q1.75 1.21875 2.96875 2.8125q1.21875 1.59375 2.015625 3.34375q0.796875 1.734375 1.15625 3.515625q0.359375 1.765625 0.359375 3.328125l0 3.84375zm53.735077 0q0 2.890625 -0.71875 5.171875q-0.703125 2.28125 -1.9375 4.03125q-1.21875 1.734375 -2.8125 2.96875q-1.59375 1.234375 -3.34375 2.015625q-1.734375 0.78125 -3.515625 1.140625q-1.765625 0.359375 -3.328125 0.359375l-19.140625 0l0 -8.46875l19.140625 0q1.625 -0.125 2.9375 -0.65625q1.328125 -0.546875 2.265625 -1.453125q0.953125 -0.921875 1.46875 -2.203125q0.53125 -1.28125 0.53125 -2.90625l0 -3.84375q-0.171875 -1.59375 -0.703125 -2.921875q-0.515625 -1.34375 -1.40625 -2.28125q-0.890625 -0.953125 -2.171875 -1.484375q-1.265625 -0.53125 -2.921875 -0.53125l-19.0625 0q-1.703125 0 -2.578125 0.875q-0.875 0.875 -0.875 2.53125l0 34.796875l-8.46875 0l0 -34.796875q0 -3.25 1.1875 -5.53125q1.1875 -2.28125 2.953125 -3.671875q1.78125 -1.40625 3.859375 -2.03125q2.09375 -0.640625 3.84375 -0.640625l19.140625 0q2.875 0 5.140625 0.734375q2.28125 0.734375 4.015625 1.953125q1.75 1.21875 2.96875 2.8125q1.21875 1.59375 2.015625 3.34375q0.796875 1.734375 1.15625 3.515625q0.359375 1.765625 0.359375 3.328125l0 3.84375zm56.203827 8.265625q0 4.265625 -1.46875 7.84375q-1.453125 3.578125 -4.0625 6.1875q-2.59375 2.59375 -6.15625 4.046875q-3.5625 1.453125 -7.765625 1.453125l-11.453125 0q-4.203125 0 -7.78125 -1.453125q-3.578125 -1.453125 -6.1875 -4.046875q-2.609375 -2.609375 -4.09375 -6.1875q-1.46875 -3.578125 -1.46875 -7.84375l0 -8.921875q0 -4.234375 1.46875 -7.828125q1.484375 -3.59375 4.09375 -6.171875q2.609375 -2.59375 6.1875 -4.0625q3.578125 -1.46875 7.78125 -1.46875l11.453125 0q4.203125 0 7.765625 1.46875q3.5625 1.46875 6.15625 4.0625q2.609375 2.578125 4.0625 6.171875q1.46875 3.59375 1.46875 7.828125l0 8.921875zm-8.453125 -8.921875q0 -2.5 -0.796875 -4.53125q-0.796875 -2.046875 -2.25 -3.484375q-1.453125 -1.453125 -3.484375 -2.25q-2.03125 -0.796875 -4.46875 -0.796875l-11.453125 0q-2.484375 0 -4.515625 0.796875q-2.03125 0.796875 -3.5 2.25q-1.46875 1.4375 -2.265625 3.484375q-0.796875 2.03125 -0.796875 4.53125l0 8.921875q0 2.5 0.796875 4.546875q0.796875 2.03125 2.265625 3.484375q1.46875 1.4375 3.5 2.234375q2.03125 0.796875 4.515625 0.796875l11.390625 0q2.46875 0 4.5 -0.796875q2.03125 -0.796875 3.5 -2.234375q1.46875 -1.453125 2.265625 -3.484375q0.796875 -2.046875 0.796875 -4.546875l0 -8.921875zm63.457153 -3.1875q0 2.890625 -0.71875 5.171875q-0.703125 2.28125 -1.921875 4.03125q-1.21875 1.734375 -2.828125 2.96875q-1.59375 1.234375 -3.328125 2.03125q-1.734375 0.796875 -3.515625 1.15625q-1.765625 0.359375 -3.328125 0.359375l17.671875 15.265625l-13.09375 0l-17.640625 -15.265625l-6.078125 0l0 -8.46875l19.140625 0q1.59375 -0.125 2.90625 -0.65625q1.3125 -0.546875 2.265625 -1.453125q0.96875 -0.90625 1.484375 -2.1875q0.53125 -1.296875 0.53125 -2.953125l0 -5.34375q0 -0.703125 -0.1875 -1.078125q-0.171875 -0.375 -0.453125 -0.546875q-0.265625 -0.1875 -0.578125 -0.21875q-0.3125 -0.03125 -0.578125 -0.03125l-27.921875 0l0 38.203125l-8.453125 0l0 -42.40625q0 -0.875 0.3125 -1.65625q0.328125 -0.78125 0.890625 -1.359375q0.578125 -0.59375 1.359375 -0.921875q0.78125 -0.328125 1.6875 -0.328125l32.125 0q2.84375 0 4.796875 1.03125q1.953125 1.015625 3.171875 2.5625q1.21875 1.546875 1.75 3.34375q0.53125 1.78125 0.53125 3.34375l0 5.40625zm50.323486 -7.21875l-18.640625 0l0 38.203125l-8.46875 0l0 -38.203125l-18.6875 0l0 -8.46875l45.796875 0l0 8.46875z" fill-rule="nonzero"/></g></svg>
